<svg data-v-0dd9719b="" version="1.0" xmlns="http://www.w3.org/2000/svg" xmlns:xlink="http://www.w3.org/1999/xlink" width="100%" height="100%" viewBox="0 0 340.000000 250.000000" preserveAspectRatio="xMidYMid meet" color-interpolation-filters="sRGB" style="margin: auto;"> <rect data-v-0dd9719b="" x="0" y="0" width="100%" height="100%" fill="#ffffff" fill-opacity="1" class="background"></rect> <rect data-v-0dd9719b="" x="0" y="0" width="100%" height="100%" fill="url(#watermark)" fill-opacity="1" class="watermarklayer"></rect> <g data-v-0dd9719b="" class="iconmbgsvg" transform="translate(70.91500091552734,74.85879516601562)"><g fill="#333" hollow-target="text"><g mask="url(#771226a4-7caa-47cf-8c53-3d378d30675f)"><g><rect fill="#333" fill-opacity="0" stroke-width="2" x="0" y="0" width="67.5" height="71.08106400454918" class="image-rect"></rect> <svg x="0" y="0" width="67.5" height="71.08106400454918" filtersec="colorsb5054228810" class="image-svg-svg primary" style="overflow: visible;"><svg xmlns="http://www.w3.org/2000/svg" viewBox="0.00418853759765625 0.0006256103515625 442.5237121582031 465.9993896484375"><title>资源 2</title><path d="M322.37 300.23C83.85 299.9 107.3 466 107.3 466S-58.6 288.37 22.18 138.17C82.21 26.54 218.05-28.66 325.57 14.9 390.59 41.23 429.2 97.19 437 162.27c7.72 64.54-45.53 138.05-114.63 137.96z" fill="#ffd600"></path><path d="M314.62 315C77.34 290.76 84 458.35 84 458.35S-63.24 265 32.2 123.66c70.94-105 211.63-146.33 314.24-92.21 62.05 32.72 94.84 92.27 96.07 157.81 1.21 64.99-59.15 132.79-127.89 125.74z" fill="#ff1744"></path></svg></svg> <!----></g></g> <g transform="translate(27.330001831054688,52.79865837097168)"><g data-gra="path-name" fill-rule="" class="tp-name" transform="translate(0,0)"><g transform="scale(1)"><g><path d="M15.74-4.7L19.13-4.7Q19.5-4.7 19.81-4.98 20.12-5.26 20.12-5.69L20.12-5.69 20.12-17.06 1.93-17.06 1.93-21.62 20.12-21.62 25.94-21.62 41.17-21.62 41.17-17.06 25.94-17.06 25.94-3.62Q25.94-2.12 24.93-1.1 23.92-0.09 22.42-0.09L22.42-0.09 13.72-0.09 15.74-4.7ZM6.96-26.46L6.96-23.69 1.13-23.69 1.13-31.07 6.96-31.07 17.44-31.07 16.17-33.79 22.61-33.79 23.92-31.07 37.69-31.07Q39.53-31.07 40.82-29.77 42.11-28.48 42.11-26.65L42.11-26.65 42.11-23.69 36.28-23.69 36.28-25Q36.28-25.61 35.86-26.04 35.44-26.46 34.83-26.46L34.83-26.46 6.96-26.46ZM54.9-13.39L50.53 0 44.04 0 48.41-13.39 54.9-13.39ZM48.41-15.6L44.04-26.13 47.23-26.13 44.04-33.89 50.53-33.89 54.9-23.31 51.7-23.31 54.9-15.6 48.41-15.6ZM60.72-0.09L54.24-0.09 55.84-5.41 55.84-27.17 55.84-31.3 55.84-31.73 69.84-31.73 69.84-33.89 76.05-33.89 76.05-31.73 85.63-31.73 83.52-23.36 77.55-23.36 78.58-27.17 76.05-27.17 76.05-22 84.46-22 84.46-17.44Q83.94-14.48 82.56-12.06 81.17-9.63 79.19-7.66L79.19-7.66Q80.42-7.1 81.76-6.7 83.1-6.3 84.46-6.02L84.46-6.02 84.46-0.05Q81.78-0.47 79.03-1.36 76.28-2.26 73.74-3.67L73.74-3.67Q71.2-2.26 68.48-1.36 65.75-0.47 63.07-0.05L63.07-0.05 63.07-6.02Q64.44-6.3 65.75-6.72 67.07-7.14 68.34-7.66L68.34-7.66Q66.5-9.45 65.19-11.63 63.87-13.82 63.26-16.45L63.26-16.45 69.94-16.45Q70.64-14.8 71.6-13.49 72.57-12.17 73.74-11.09L73.74-11.09Q75.11-12.31 76.16-13.89 77.22-15.46 78.02-17.44L78.02-17.44 62.37-17.44 62.37-5.41 60.72-0.09ZM69.84-27.17L62.37-27.17 62.37-22 69.84-22 69.84-27.17ZM94.66-24.44L88.36-24.44 92.54-27.12 98.65-27.12 94.66-24.44ZM98.28-27.68L92.59-27.68 89.58-30.17 95.32-30.17 98.28-27.68ZM116.09-24.44L109.79-24.44 113.98-27.12 120.09-27.12 116.09-24.44ZM119.76-27.68L114.07-27.68 111.06-30.17 116.75-30.17 119.76-27.68ZM87.75-0.09L91.37-2.82 100.53-2.82 96.91-0.09 87.75-0.09ZM115.71-2.82L124.88-2.82 128.5-0.09 119.29-0.09 115.71-2.82ZM121.59-8.32L121.59-7.24 128.69-7.24 128.69-3.85 87.47-3.85 87.47-7.24 94.56-7.24 94.56-8.32 87.75-8.32 87.75-11.75 94.56-11.75 94.56-12.64 88.13-12.64 88.13-23.27 128.17-23.27 128.17-16.73Q128.17-12.64 123.75-12.64L123.75-12.64 121.59-12.64 121.59-11.75 128.55-11.75 128.55-8.32 121.59-8.32ZM94.75-15.7L105.84-15.7 105.84-16.54 94.75-16.54 94.75-15.7ZM110.87-16.54L110.87-15.7 120.51-15.7Q121.54-15.7 121.64-16.54L121.64-16.54 110.87-16.54ZM121.68-19.36L121.68-20.21 110.87-20.21 110.87-19.36 121.68-19.36ZM105.84-20.21L94.75-20.21 94.75-19.36 105.84-19.36 105.84-20.21ZM101.33-12.64L101.33-11.75 114.82-11.75 114.82-12.64 101.33-12.64ZM101.33-8.32L101.33-7.24 114.82-7.24 114.82-8.32 101.33-8.32ZM108.9-30.74L108.9-33.75 128.69-33.75 128.69-27.73Q128.69-26.88 128.38-26.23 128.07-25.57 127.61-25.12 127.14-24.68 126.57-24.44 126.01-24.2 125.49-24.2L125.49-24.2 122.67-24.2 121.21-27.21 122.76-27.21Q123.38-27.21 123.38-27.82L123.38-27.82 123.38-30.74 108.9-30.74ZM99.73-27.21L101.28-27.21Q101.94-27.21 101.94-27.82L101.94-27.82 101.94-30.74 87.47-30.74 87.47-33.75 107.21-33.75 107.21-27.73Q107.21-26.88 106.9-26.23 106.6-25.57 106.13-25.12 105.66-24.68 105.09-24.44 104.53-24.2 104.01-24.2L104.01-24.2 101.24-24.2 99.73-27.21ZM130.71 0.09L138.41-16.17 145.23-16.17 137.52 0.09 130.71 0.09ZM171.93 0.09L165.11 0.09 157.36-16.17 164.17-16.17 171.93 0.09ZM148.1 0.09L148.1-18.19 130.71-18.19 130.71-22.84 137.33-22.84 132.21-33.93 138.74-33.93 143.87-22.84 148.1-22.84 148.1-33.93 154.58-33.93 154.58-22.84 158.77-22.84 163.89-33.93 170.42-33.93 165.3-22.84 171.97-22.84 171.97-18.19 154.58-18.19 154.58 0.09 148.1 0.09Z" transform="translate(-1.1299999952316284, 33.93000030517578)"></path></g> <!----> <!----> <!----> <!----> <!----> <!----> <!----></g></g> <g data-gra="path-slogan" fill-rule="" class="tp-slogan" fill="#333" transform="translate(5,40.02000427246094)"><rect x="0" height="1" y="3.2300002574920654" width="46.94999885559082"></rect> <rect height="1" y="3.2300002574920654" width="46.94999885559082" x="113.8899974822998"></rect> <g transform="translate(49.94999885559082,0)"><g transform="scale(1)"><path d="M1.91-7.15L5.51-1.37L5.51-7.15L6.45-7.15L6.45 0L5.35 0L1.72-5.78L1.68-5.78L1.68 0L0.74 0L0.74-7.15L1.91-7.15ZM8.09-7.15L9.06-7.15L9.06 0L8.09 0L8.09-7.15ZM11.88-7.15L15.47-1.37L15.47-7.15L16.41-7.15L16.41 0L15.31 0L11.68-5.78L11.64-5.78L11.64 0L10.70 0L10.70-7.15L11.88-7.15ZM23.24-3.01L21.05-3.01L21.05-3.83L24.18-3.83L24.18 0L23.55 0L23.32-0.90Q22.50 0.08 20.98 0.12L20.98 0.12Q19.53 0.12 18.75-0.63L18.75-0.63Q17.58-1.72 17.62-3.63L17.62-3.63Q17.89-7.19 21.02-7.34L21.02-7.34Q23.67-7.19 24.06-5L24.06-5L23.13-5Q22.73-6.48 20.98-6.52L20.98-6.52Q18.75-6.37 18.63-3.59L18.63-3.59Q18.63-0.63 21.02-0.63L21.02-0.63Q21.88-0.63 22.50-1.09L22.50-1.09Q23.28-1.72 23.24-3.01L23.24-3.01ZM28.36-6.37L26.64-6.37L26.64-4.14L28.36-4.14Q29.88-4.10 29.84-5.31L29.84-5.31Q29.84-6.37 28.36-6.37L28.36-6.37ZM28.75 0L25.66 0L25.66-7.15L28.83-7.15Q30.74-7.07 30.82-5.35L30.82-5.35Q30.82-4.30 29.88-3.87L29.88-3.87Q31.21-3.40 31.21-2.11L31.21-2.11Q31.09-0.08 28.75 0L28.75 0ZM28.52-3.32L26.64-3.32L26.64-0.82L28.71-0.82Q30.20-0.86 30.23-2.11L30.23-2.11Q30.23-3.32 28.52-3.32L28.52-3.32ZM37.97-3.55L37.97-3.55Q37.81-6.37 35.47-6.52L35.47-6.52Q33.09-6.41 32.97-3.55L32.97-3.55Q33.09-0.78 35.47-0.66L35.47-0.66Q37.81-0.82 37.97-3.55ZM38.95-3.55L38.95-3.55Q38.71 0 35.47 0.12L35.47 0.12Q32.19 0 31.95-3.55L31.95-3.55Q32.15-7.27 35.47-7.34L35.47-7.34Q38.71-7.23 38.95-3.55ZM48.63-7.15L45.94-2.89L45.94 0L44.96 0L44.96-2.89L42.27-7.15L43.40-7.15L45.43-3.71L47.50-7.15L48.63-7.15ZM49.65-7.15L50.63-7.15L50.63 0L49.65 0L49.65-7.15ZM59.14-7.15L59.14 0L58.20 0L58.20-4.22Q58.20-4.80 58.20-6.02L58.20-6.02L56.17 0L55.20 0L53.20-6.02L53.16-6.02Q53.16-5.59 53.20-4.73L53.20-4.73Q53.20-4.30 53.20-4.22L53.20-4.22L53.20 0L52.23 0L52.23-7.15L53.63-7.15L55.70-1.09L57.73-7.15L59.14-7.15ZM60.70-7.15L61.68-7.15L61.68 0L60.70 0L60.70-7.15Z" transform="translate(-0.7421875, 7.34375)"></path></g></g></g></g></g></g><mask id="771226a4-7caa-47cf-8c53-3d378d30675f"><g fill="white"><g><rect fill-opacity="1" stroke-width="2" x="0" y="0" width="67.5" height="71.08106400454918" class="image-rect"></rect> <svg x="0" y="0" width="67.5" height="71.08106400454918" filtersec="colorsb5054228810" class="image-svg-svg primary" style="overflow: visible;"><svg xmlns="http://www.w3.org/2000/svg" viewBox="0.00418853759765625 0.0006256103515625 442.5237121582031 465.9993896484375"><title>资源 2</title><path d="M322.37 300.23C83.85 299.9 107.3 466 107.3 466S-58.6 288.37 22.18 138.17C82.21 26.54 218.05-28.66 325.57 14.9 390.59 41.23 429.2 97.19 437 162.27c7.72 64.54-45.53 138.05-114.63 137.96z"></path><path d="M314.62 315C77.34 290.76 84 458.35 84 458.35S-63.24 265 32.2 123.66c70.94-105 211.63-146.33 314.24-92.21 62.05 32.72 94.84 92.27 96.07 157.81 1.21 64.99-59.15 132.79-127.89 125.74z"></path></svg></svg> </g></g> <g transform="translate(27.330001831054688,52.79865837097168)" fill="black" stroke="black" stroke-width="6" stroke-linejoin="round"><g data-gra="path-name" fill-rule="" class="tp-name" transform="translate(0,0)"><g transform="scale(1)"><g><path d="M15.74-4.7L19.13-4.7Q19.5-4.7 19.81-4.98 20.12-5.26 20.12-5.69L20.12-5.69 20.12-17.06 1.93-17.06 1.93-21.62 20.12-21.62 25.94-21.62 41.17-21.62 41.17-17.06 25.94-17.06 25.94-3.62Q25.94-2.12 24.93-1.1 23.92-0.09 22.42-0.09L22.42-0.09 13.72-0.09 15.74-4.7ZM6.96-26.46L6.96-23.69 1.13-23.69 1.13-31.07 6.96-31.07 17.44-31.07 16.17-33.79 22.61-33.79 23.92-31.07 37.69-31.07Q39.53-31.07 40.82-29.77 42.11-28.48 42.11-26.65L42.11-26.65 42.11-23.69 36.28-23.69 36.28-25Q36.28-25.61 35.86-26.04 35.44-26.46 34.83-26.46L34.83-26.46 6.96-26.46ZM54.9-13.39L50.53 0 44.04 0 48.41-13.39 54.9-13.39ZM48.41-15.6L44.04-26.13 47.23-26.13 44.04-33.89 50.53-33.89 54.9-23.31 51.7-23.31 54.9-15.6 48.41-15.6ZM60.72-0.09L54.24-0.09 55.84-5.41 55.84-27.17 55.84-31.3 55.84-31.73 69.84-31.73 69.84-33.89 76.05-33.89 76.05-31.73 85.63-31.73 83.52-23.36 77.55-23.36 78.58-27.17 76.05-27.17 76.05-22 84.46-22 84.46-17.44Q83.94-14.48 82.56-12.06 81.17-9.63 79.19-7.66L79.19-7.66Q80.42-7.1 81.76-6.7 83.1-6.3 84.46-6.02L84.46-6.02 84.46-0.05Q81.78-0.47 79.03-1.36 76.28-2.26 73.74-3.67L73.74-3.67Q71.2-2.26 68.48-1.36 65.75-0.47 63.07-0.05L63.07-0.05 63.07-6.02Q64.44-6.3 65.75-6.72 67.07-7.14 68.34-7.66L68.34-7.66Q66.5-9.45 65.19-11.63 63.87-13.82 63.26-16.45L63.26-16.45 69.94-16.45Q70.64-14.8 71.6-13.49 72.57-12.17 73.74-11.09L73.74-11.09Q75.11-12.31 76.16-13.89 77.22-15.46 78.02-17.44L78.02-17.44 62.37-17.44 62.37-5.41 60.72-0.09ZM69.84-27.17L62.37-27.17 62.37-22 69.84-22 69.84-27.17ZM94.66-24.44L88.36-24.44 92.54-27.12 98.65-27.12 94.66-24.44ZM98.28-27.68L92.59-27.68 89.58-30.17 95.32-30.17 98.28-27.68ZM116.09-24.44L109.79-24.44 113.98-27.12 120.09-27.12 116.09-24.44ZM119.76-27.68L114.07-27.68 111.06-30.17 116.75-30.17 119.76-27.68ZM87.75-0.09L91.37-2.82 100.53-2.82 96.91-0.09 87.75-0.09ZM115.71-2.82L124.88-2.82 128.5-0.09 119.29-0.09 115.71-2.82ZM121.59-8.32L121.59-7.24 128.69-7.24 128.69-3.85 87.47-3.85 87.47-7.24 94.56-7.24 94.56-8.32 87.75-8.32 87.75-11.75 94.56-11.75 94.56-12.64 88.13-12.64 88.13-23.27 128.17-23.27 128.17-16.73Q128.17-12.64 123.75-12.64L123.75-12.64 121.59-12.64 121.59-11.75 128.55-11.75 128.55-8.32 121.59-8.32ZM94.75-15.7L105.84-15.7 105.84-16.54 94.75-16.54 94.75-15.7ZM110.87-16.54L110.87-15.7 120.51-15.7Q121.54-15.7 121.64-16.54L121.64-16.54 110.87-16.54ZM121.68-19.36L121.68-20.21 110.87-20.21 110.87-19.36 121.68-19.36ZM105.84-20.21L94.75-20.21 94.75-19.36 105.84-19.36 105.84-20.21ZM101.33-12.64L101.33-11.75 114.82-11.75 114.82-12.64 101.33-12.64ZM101.33-8.32L101.33-7.24 114.82-7.24 114.82-8.32 101.33-8.32ZM108.9-30.74L108.9-33.75 128.69-33.75 128.69-27.73Q128.69-26.88 128.38-26.23 128.07-25.57 127.61-25.12 127.14-24.68 126.57-24.44 126.01-24.2 125.49-24.2L125.49-24.2 122.67-24.2 121.21-27.21 122.76-27.21Q123.38-27.21 123.38-27.82L123.38-27.82 123.38-30.74 108.9-30.74ZM99.73-27.21L101.28-27.21Q101.94-27.21 101.94-27.82L101.94-27.82 101.94-30.74 87.47-30.74 87.47-33.75 107.21-33.75 107.21-27.73Q107.21-26.88 106.9-26.23 106.6-25.57 106.13-25.12 105.66-24.68 105.09-24.44 104.53-24.2 104.01-24.2L104.01-24.2 101.24-24.2 99.73-27.21ZM130.71 0.09L138.41-16.17 145.23-16.17 137.52 0.09 130.71 0.09ZM171.93 0.09L165.11 0.09 157.36-16.17 164.17-16.17 171.93 0.09ZM148.1 0.09L148.1-18.19 130.71-18.19 130.71-22.84 137.33-22.84 132.21-33.93 138.74-33.93 143.87-22.84 148.1-22.84 148.1-33.93 154.58-33.93 154.58-22.84 158.77-22.84 163.89-33.93 170.42-33.93 165.3-22.84 171.97-22.84 171.97-18.19 154.58-18.19 154.58 0.09 148.1 0.09Z" transform="translate(-1.1299999952316284, 33.93000030517578)"></path></g>       </g></g> <g data-gra="path-slogan" fill-rule="" class="tp-slogan" transform="translate(5,40.02000427246094)" fill="white"><rect x="0" height="1" y="3.2300002574920654" width="46.94999885559082"></rect> <rect height="1" y="3.2300002574920654" width="46.94999885559082" x="113.8899974822998"></rect> <g transform="translate(49.94999885559082,0)"><g transform="scale(1)"><path d="M1.91-7.15L5.51-1.37L5.51-7.15L6.45-7.15L6.45 0L5.35 0L1.72-5.78L1.68-5.78L1.68 0L0.74 0L0.74-7.15L1.91-7.15ZM8.09-7.15L9.06-7.15L9.06 0L8.09 0L8.09-7.15ZM11.88-7.15L15.47-1.37L15.47-7.15L16.41-7.15L16.41 0L15.31 0L11.68-5.78L11.64-5.78L11.64 0L10.70 0L10.70-7.15L11.88-7.15ZM23.24-3.01L21.05-3.01L21.05-3.83L24.18-3.83L24.18 0L23.55 0L23.32-0.90Q22.50 0.08 20.98 0.12L20.98 0.12Q19.53 0.12 18.75-0.63L18.75-0.63Q17.58-1.72 17.62-3.63L17.62-3.63Q17.89-7.19 21.02-7.34L21.02-7.34Q23.67-7.19 24.06-5L24.06-5L23.13-5Q22.73-6.48 20.98-6.52L20.98-6.52Q18.75-6.37 18.63-3.59L18.63-3.59Q18.63-0.63 21.02-0.63L21.02-0.63Q21.88-0.63 22.50-1.09L22.50-1.09Q23.28-1.72 23.24-3.01L23.24-3.01ZM28.36-6.37L26.64-6.37L26.64-4.14L28.36-4.14Q29.88-4.10 29.84-5.31L29.84-5.31Q29.84-6.37 28.36-6.37L28.36-6.37ZM28.75 0L25.66 0L25.66-7.15L28.83-7.15Q30.74-7.07 30.82-5.35L30.82-5.35Q30.82-4.30 29.88-3.87L29.88-3.87Q31.21-3.40 31.21-2.11L31.21-2.11Q31.09-0.08 28.75 0L28.75 0ZM28.52-3.32L26.64-3.32L26.64-0.82L28.71-0.82Q30.20-0.86 30.23-2.11L30.23-2.11Q30.23-3.32 28.52-3.32L28.52-3.32ZM37.97-3.55L37.97-3.55Q37.81-6.37 35.47-6.52L35.47-6.52Q33.09-6.41 32.97-3.55L32.97-3.55Q33.09-0.78 35.47-0.66L35.47-0.66Q37.81-0.82 37.97-3.55ZM38.95-3.55L38.95-3.55Q38.71 0 35.47 0.12L35.47 0.12Q32.19 0 31.95-3.55L31.95-3.55Q32.15-7.27 35.47-7.34L35.47-7.34Q38.71-7.23 38.95-3.55ZM48.63-7.15L45.94-2.89L45.94 0L44.96 0L44.96-2.89L42.27-7.15L43.40-7.15L45.43-3.71L47.50-7.15L48.63-7.15ZM49.65-7.15L50.63-7.15L50.63 0L49.65 0L49.65-7.15ZM59.14-7.15L59.14 0L58.20 0L58.20-4.22Q58.20-4.80 58.20-6.02L58.20-6.02L56.17 0L55.20 0L53.20-6.02L53.16-6.02Q53.16-5.59 53.20-4.73L53.20-4.73Q53.20-4.30 53.20-4.22L53.20-4.22L53.20 0L52.23 0L52.23-7.15L53.63-7.15L55.70-1.09L57.73-7.15L59.14-7.15ZM60.70-7.15L61.68-7.15L61.68 0L60.70 0L60.70-7.15Z" transform="translate(-0.7421875, 7.34375)"></path></g></g></g></g></mask><defs v-gra="od"></defs></svg>